<?xml version="1.0" encoding="UTF-8" standalone="no"?>
<svg
   xmlns:dc="http://purl.org/dc/elements/1.1/"
   xmlns:cc="http://creativecommons.org/ns#"
   xmlns:rdf="http://www.w3.org/1999/02/22-rdf-syntax-ns#"
   xmlns:svg="http://www.w3.org/2000/svg"
   xmlns="http://www.w3.org/2000/svg"
   xmlns:sodipodi="http://sodipodi.sourceforge.net/DTD/sodipodi-0.dtd"
   xmlns:inkscape="http://www.inkscape.org/namespaces/inkscape"
   version="1.1"
   id="Layer_1"
   x="0px"
   y="0px"
   viewBox="0 0 512 512"
   style="enable-background:new 0 0 512 512;"
   xml:space="preserve"
   sodipodi:docname="icon.svg"
   inkscape:version="1.0.2-2 (e86c870879, 2021-01-15)"><metadata
   id="metadata49"><rdf:RDF><cc:Work
       rdf:about=""><dc:format>image/svg+xml</dc:format><dc:type
         rdf:resource="http://purl.org/dc/dcmitype/StillImage" /></cc:Work></rdf:RDF></metadata><defs
   id="defs47" /><sodipodi:namedview
   pagecolor="#ffffff"
   bordercolor="#666666"
   borderopacity="1"
   objecttolerance="10"
   gridtolerance="10"
   guidetolerance="10"
   inkscape:pageopacity="0"
   inkscape:pageshadow="2"
   inkscape:window-width="1920"
   inkscape:window-height="1017"
   id="namedview45"
   showgrid="false"
   inkscape:zoom="1.6601562"
   inkscape:cx="256"
   inkscape:cy="256"
   inkscape:window-x="-8"
   inkscape:window-y="-8"
   inkscape:window-maximized="1"
   inkscape:current-layer="Layer_1" />
<circle
   style="fill:#FF9911;"
   cx="256"
   cy="256"
   r="256"
   id="circle2" />

<g
   id="g12">
	<path
   style="fill:#FCFCFC;"
   d="M155.826,401.252c-24.856,0-45.078-20.222-45.078-45.078c0-24.856,20.222-45.078,45.078-45.078   s45.078,20.222,45.078,45.078C200.904,381.03,180.683,401.252,155.826,401.252z"
   id="path6" />
	<path
   style="fill:#FCFCFC;"
   d="M249.878,387.908v-10.041c0-63.924-51.821-115.744-115.744-115.744h-10.041   c-1.223,0-2.214-0.992-2.214-2.214v-57.902c0-1.223,0.992-2.214,2.214-2.214h10.041c98.349,0,178.075,79.727,178.075,178.075   v10.041c0,1.223-0.992,2.214-2.214,2.214h-57.902C250.87,390.122,249.878,389.13,249.878,387.908z"
   id="path8" />
	<path
   style="fill:#FCFCFC;"
   d="M361.183,387.908v-10.041c0-125.395-101.653-227.049-227.049-227.049h-10.041   c-1.223,0-2.214-0.992-2.214-2.214V90.701c0-1.223,0.992-2.214,2.214-2.214h12.255c76.705,0,148.818,29.87,203.057,84.108   c54.239,54.239,84.108,126.352,84.108,203.057v12.256c0,1.223-0.992,2.214-2.214,2.214h-57.902   C362.174,390.122,361.183,389.13,361.183,387.908z"
   id="path10" />
</g>
<g
   id="g14">
</g>
<g
   id="g16">
</g>
<g
   id="g18">
</g>
<g
   id="g20">
</g>
<g
   id="g22">
</g>
<g
   id="g24">
</g>
<g
   id="g26">
</g>
<g
   id="g28">
</g>
<g
   id="g30">
</g>
<g
   id="g32">
</g>
<g
   id="g34">
</g>
<g
   id="g36">
</g>
<g
   id="g38">
</g>
<g
   id="g40">
</g>
<g
   id="g42">
</g>
</svg>
